<svg width="212" height="36" viewBox="0 0 212 36" fill="none" xmlns="http://www.w3.org/2000/svg">
<path d="M14.804 28.432C12.86 28.432 11.048 28.084 9.368 27.388C7.712 26.692 6.248 25.72 4.976 24.472C3.728 23.224 2.744 21.76 2.024 20.08C1.328 18.4 0.98 16.564 0.98 14.572C0.98 12.58 1.328 10.744 2.024 9.064C2.744 7.36 3.728 5.896 4.976 4.672C6.224 3.424 7.688 2.464 9.368 1.792C11.048 1.096 12.86 0.747999 14.804 0.747999C16.772 0.747999 18.584 1.096 20.24 1.792C21.92 2.464 23.384 3.424 24.632 4.672C25.904 5.92 26.888 7.384 27.584 9.064C28.28 10.744 28.628 12.58 28.628 14.572C28.628 16.564 28.268 18.4 27.548 20.08C26.852 21.76 25.88 23.224 24.632 24.472C23.384 25.72 21.92 26.692 20.24 27.388C18.56 28.084 16.748 28.432 14.804 28.432ZM14.804 24.544C16.196 24.544 17.468 24.292 18.62 23.788C19.796 23.284 20.816 22.588 21.68 21.7C22.544 20.788 23.216 19.732 23.696 18.532C24.176 17.308 24.416 15.988 24.416 14.572C24.416 13.156 24.176 11.848 23.696 10.648C23.216 9.448 22.544 8.392 21.68 7.48C20.816 6.568 19.796 5.86 18.62 5.356C17.468 4.852 16.196 4.6 14.804 4.6C13.412 4.6 12.128 4.852 10.952 5.356C9.8 5.86 8.792 6.568 7.928 7.48C7.064 8.392 6.392 9.448 5.912 10.648C5.456 11.848 5.228 13.156 5.228 14.572C5.228 15.988 5.456 17.308 5.912 18.532C6.392 19.732 7.064 20.788 7.928 21.7C8.792 22.588 9.812 23.284 10.988 23.788C12.164 24.292 13.436 24.544 14.804 24.544ZM32.9815 35.2V8.524H36.8695V12.556L36.4015 11.62C37.1215 10.516 38.0815 9.652 39.2815 9.028C40.4815 8.404 41.8495 8.092 43.3855 8.092C45.2335 8.092 46.8895 8.536 48.3535 9.424C49.8415 10.312 51.0055 11.524 51.8455 13.06C52.7095 14.596 53.1415 16.324 53.1415 18.244C53.1415 20.164 52.7095 21.892 51.8455 23.428C51.0055 24.964 49.8535 26.188 48.3895 27.1C46.9255 27.988 45.2575 28.432 43.3855 28.432C41.8735 28.432 40.4935 28.12 39.2455 27.496C38.0215 26.872 37.0735 25.972 36.4015 24.796L37.0495 24.04V35.2H32.9815ZM42.9895 24.652C44.1415 24.652 45.1615 24.376 46.0495 23.824C46.9375 23.272 47.6335 22.516 48.1375 21.556C48.6655 20.572 48.9295 19.468 48.9295 18.244C48.9295 17.02 48.6655 15.928 48.1375 14.968C47.6335 14.008 46.9375 13.252 46.0495 12.7C45.1615 12.148 44.1415 11.872 42.9895 11.872C41.8615 11.872 40.8415 12.148 39.9295 12.7C39.0415 13.252 38.3335 14.008 37.8055 14.968C37.3015 15.928 37.0495 17.02 37.0495 18.244C37.0495 19.468 37.3015 20.572 37.8055 21.556C38.3335 22.516 39.0415 23.272 39.9295 23.824C40.8415 24.376 41.8615 24.652 42.9895 24.652ZM65.1711 28.216C63.1311 28.216 61.5471 27.64 60.4191 26.488C59.2911 25.336 58.7271 23.716 58.7271 21.628V12.196H55.3071V8.524H55.8471C56.7591 8.524 57.4671 8.26 57.9711 7.732C58.4751 7.204 58.7271 6.484 58.7271 5.572V4.06H62.7951V8.524H67.2231V12.196H62.7951V21.448C62.7951 22.12 62.9031 22.696 63.1191 23.176C63.3351 23.632 63.6831 23.992 64.1631 24.256C64.6431 24.496 65.2671 24.616 66.0351 24.616C66.2271 24.616 66.4431 24.604 66.6831 24.58C66.9231 24.556 67.1511 24.532 67.3671 24.508V28C67.0311 28.048 66.6591 28.096 66.2511 28.144C65.8431 28.192 65.4831 28.216 65.1711 28.216ZM80.3814 28.432C78.5094 28.432 76.7934 27.988 75.2334 27.1C73.6974 26.212 72.4734 25 71.5614 23.464C70.6494 21.928 70.1934 20.188 70.1934 18.244C70.1934 16.276 70.6494 14.536 71.5614 13.024C72.4734 11.488 73.6974 10.288 75.2334 9.424C76.7694 8.536 78.4854 8.092 80.3814 8.092C82.3014 8.092 84.0174 8.536 85.5294 9.424C87.0654 10.288 88.2774 11.488 89.1654 13.024C90.0774 14.536 90.5334 16.276 90.5334 18.244C90.5334 20.212 90.0774 21.964 89.1654 23.5C88.2534 25.036 87.0294 26.248 85.4934 27.136C83.9574 28 82.2534 28.432 80.3814 28.432ZM80.3814 24.652C81.5334 24.652 82.5534 24.376 83.4414 23.824C84.3294 23.272 85.0254 22.516 85.5294 21.556C86.0574 20.572 86.3214 19.468 86.3214 18.244C86.3214 17.02 86.0574 15.928 85.5294 14.968C85.0254 14.008 84.3294 13.252 83.4414 12.7C82.5534 12.148 81.5334 11.872 80.3814 11.872C79.2534 11.872 78.2334 12.148 77.3214 12.7C76.4334 13.252 75.7254 14.008 75.1974 14.968C74.6934 15.928 74.4414 17.02 74.4414 18.244C74.4414 19.468 74.6934 20.572 75.1974 21.556C75.7254 22.516 76.4334 23.272 77.3214 23.824C78.2334 24.376 79.2534 24.652 80.3814 24.652ZM99.8053 28L92.1733 8.524H96.6013L102.469 24.4H100.849L106.717 8.524H111.181L103.513 28H99.8053ZM113.946 28V0.747999H118.014V19L116.43 18.604L126.186 8.524H131.262L123.918 16.336L131.586 28H126.906L120.066 17.668L122.478 17.344L116.718 23.464L118.014 20.764V28H113.946ZM140.204 28.432C138.884 28.432 137.72 28.204 136.712 27.748C135.728 27.268 134.96 26.62 134.408 25.804C133.856 24.964 133.58 23.98 133.58 22.852C133.58 21.796 133.808 20.848 134.264 20.008C134.744 19.168 135.476 18.46 136.46 17.884C137.444 17.308 138.68 16.9 140.168 16.66L146.936 15.544V18.748L140.96 19.792C139.88 19.984 139.088 20.332 138.584 20.836C138.08 21.316 137.828 21.94 137.828 22.708C137.828 23.452 138.104 24.064 138.656 24.544C139.232 25 139.964 25.228 140.852 25.228C141.956 25.228 142.916 24.988 143.732 24.508C144.572 24.028 145.22 23.392 145.676 22.6C146.132 21.784 146.36 20.884 146.36 19.9V14.896C146.36 13.936 146 13.156 145.28 12.556C144.584 11.932 143.648 11.62 142.472 11.62C141.392 11.62 140.444 11.908 139.628 12.484C138.836 13.036 138.248 13.756 137.864 14.644L134.48 12.952C134.84 11.992 135.428 11.152 136.244 10.432C137.06 9.688 138.008 9.112 139.088 8.704C140.192 8.296 141.356 8.092 142.58 8.092C144.116 8.092 145.472 8.38 146.648 8.956C147.848 9.532 148.772 10.336 149.42 11.368C150.092 12.376 150.428 13.552 150.428 14.896V28H146.54V24.472L147.368 24.58C146.912 25.372 146.324 26.056 145.604 26.632C144.908 27.208 144.104 27.652 143.192 27.964C142.304 28.276 141.308 28.432 140.204 28.432Z" fill="#171717"/>
<path d="M155.509 28L166.957 4.78H154.069V1.18H171.385V4.78L160.117 28H155.509ZM175.442 28L186.89 4.78H174.002V1.18H191.318V4.78L180.05 28H175.442ZM195.376 28L206.824 4.78H193.936V1.18H211.252V4.78L199.984 28H195.376Z" fill="#1543E8"/>
</svg>
