<svg width="27" height="28" viewBox="0 0 27 28" fill="none" xmlns="http://www.w3.org/2000/svg">
<path d="M21.6668 22.0003C22.3741 22.0003 23.0523 22.2813 23.5524 22.7814C24.0525 23.2815 24.3335 23.9597 24.3335 24.667C24.3335 25.3742 24.0525 26.0525 23.5524 26.5526C23.0523 27.0527 22.3741 27.3337 21.6668 27.3337C20.9596 27.3337 20.2813 27.0527 19.7812 26.5526C19.2811 26.0525 19.0002 25.3742 19.0002 24.667C19.0002 23.187 20.1868 22.0003 21.6668 22.0003ZM0.333496 0.666992H4.6935L5.94683 3.33366H25.6668C26.0205 3.33366 26.3596 3.47413 26.6096 3.72418C26.8597 3.97423 27.0002 4.31337 27.0002 4.66699C27.0002 4.89366 26.9335 5.12033 26.8402 5.33366L22.0668 13.9603C21.6135 14.7737 20.7335 15.3337 19.7335 15.3337H9.80016L8.60016 17.507L8.56016 17.667C8.56016 17.7554 8.59528 17.8402 8.65779 17.9027C8.72031 17.9652 8.80509 18.0003 8.8935 18.0003H24.3335V20.667H8.3335C7.62625 20.667 6.94797 20.386 6.44788 19.8859C5.94778 19.3858 5.66683 18.7076 5.66683 18.0003C5.66683 17.5337 5.78683 17.0937 5.98683 16.7203L7.80016 13.4537L3.00016 3.33366H0.333496V0.666992ZM8.3335 22.0003C9.04074 22.0003 9.71902 22.2813 10.2191 22.7814C10.7192 23.2815 11.0002 23.9597 11.0002 24.667C11.0002 25.3742 10.7192 26.0525 10.2191 26.5526C9.71902 27.0527 9.04074 27.3337 8.3335 27.3337C7.62625 27.3337 6.94797 27.0527 6.44788 26.5526C5.94778 26.0525 5.66683 25.3742 5.66683 24.667C5.66683 23.187 6.8535 22.0003 8.3335 22.0003ZM20.3335 12.667L24.0402 6.00033H7.18683L10.3335 12.667H20.3335Z" fill="#696969"/>
</svg>
