<svg width="80" height="80" viewBox="0 0 80 80" fill="none" xmlns="http://www.w3.org/2000/svg">
<path d="M66.6666 26.6666H13.3333V19.9999H66.6666M66.6666 59.9999H13.3333V39.9999H66.6666M66.6666 13.3333H13.3333C9.63329 13.3333 6.66663 16.2999 6.66663 19.9999V59.9999C6.66663 61.768 7.369 63.4637 8.61925 64.714C9.86949 65.9642 11.5652 66.6666 13.3333 66.6666H66.6666C68.4347 66.6666 70.1304 65.9642 71.3807 64.714C72.6309 63.4637 73.3333 61.768 73.3333 59.9999V19.9999C73.3333 18.2318 72.6309 16.5361 71.3807 15.2859C70.1304 14.0356 68.4347 13.3333 66.6666 13.3333Z" fill="#C1C1C1"/>
</svg>
