<svg width="27" height="32" viewBox="0 0 27 28" fill="none" xmlns="http://www.w3.org/2000/svg">
    <path
        d="M21.6667 22C22.374 22 23.0522 22.2809 23.5523 22.781C24.0524 23.2811 24.3334 23.9594 24.3334 24.6666C24.3334 25.3739 24.0524 26.0521 23.5523 26.5522C23.0522 27.0523 22.374 27.3333 21.6667 27.3333C20.9595 27.3333 20.2812 27.0523 19.7811 26.5522C19.281 26.0521 19 25.3739 19 24.6666C19 23.1866 20.1867 22 21.6667 22ZM0.333374 0.666626H4.69337L5.94671 3.33329H25.6667C26.0203 3.33329 26.3595 3.47377 26.6095 3.72382C26.8596 3.97387 27 4.313 27 4.66663C27 4.89329 26.9334 5.11996 26.84 5.33329L22.0667 13.96C21.6134 14.7733 20.7334 15.3333 19.7334 15.3333H9.80004L8.60004 17.5066L8.56004 17.6666C8.56004 17.755 8.59516 17.8398 8.65767 17.9023C8.72018 17.9648 8.80497 18 8.89337 18H24.3334V20.6666H8.33337C7.62613 20.6666 6.94785 20.3857 6.44776 19.8856C5.94766 19.3855 5.66671 18.7072 5.66671 18C5.66671 17.5333 5.78671 17.0933 5.98671 16.72L7.80004 13.4533L3.00004 3.33329H0.333374V0.666626ZM8.33337 22C9.04062 22 9.71889 22.2809 10.219 22.781C10.7191 23.2811 11 23.9594 11 24.6666C11 25.3739 10.7191 26.0521 10.219 26.5522C9.71889 27.0523 9.04062 27.3333 8.33337 27.3333C7.62613 27.3333 6.94785 27.0523 6.44776 26.5522C5.94766 26.0521 5.66671 25.3739 5.66671 24.6666C5.66671 23.1866 6.85337 22 8.33337 22ZM20.3334 12.6666L24.04 5.99996H7.18671L10.3334 12.6666H20.3334Z"
        fill="#171717" />
</svg>