<svg width="32" height="32" viewBox="0 0 32 32" fill="none" xmlns="http://www.w3.org/2000/svg">
<path d="M16.0002 5.33301C17.4147 5.33301 18.7712 5.89491 19.7714 6.8951C20.7716 7.8953 21.3335 9.25185 21.3335 10.6663C21.3335 12.0808 20.7716 13.4374 19.7714 14.4376C18.7712 15.4378 17.4147 15.9997 16.0002 15.9997C14.5857 15.9997 13.2291 15.4378 12.2289 14.4376C11.2287 13.4374 10.6668 12.0808 10.6668 10.6663C10.6668 9.25185 11.2287 7.8953 12.2289 6.8951C13.2291 5.89491 14.5857 5.33301 16.0002 5.33301ZM16.0002 7.99967C15.2929 7.99967 14.6146 8.28063 14.1145 8.78072C13.6144 9.28082 13.3335 9.9591 13.3335 10.6663C13.3335 11.3736 13.6144 12.0519 14.1145 12.552C14.6146 13.0521 15.2929 13.333 16.0002 13.333C16.7074 13.333 17.3857 13.0521 17.8858 12.552C18.3859 12.0519 18.6668 11.3736 18.6668 10.6663C18.6668 9.9591 18.3859 9.28082 17.8858 8.78072C17.3857 8.28063 16.7074 7.99967 16.0002 7.99967ZM16.0002 17.333C19.5602 17.333 26.6668 19.1063 26.6668 22.6663V26.6663H5.3335V22.6663C5.3335 19.1063 12.4402 17.333 16.0002 17.333ZM16.0002 19.8663C12.0402 19.8663 7.86683 21.813 7.86683 22.6663V24.133H24.1335V22.6663C24.1335 21.813 19.9602 19.8663 16.0002 19.8663Z" fill="#696969"/>
</svg>
