<svg width="80" height="80" viewBox="0 0 80 80" fill="none" xmlns="http://www.w3.org/2000/svg">
<path d="M65.3935 31.3582L65.2433 31.1667H65H56.6667H56.1667V31.6667V40V40.5H56.6667H71.5333H72.5607L71.9268 39.6915L65.3935 31.3582ZM3.83333 56.1667V20C3.83333 16.5761 6.57614 13.8333 10 13.8333H56.1667V26.6667V27.1667H56.6667H66.4167L76.1667 40.1667V56.1667H70H69.5V56.6667C69.5 61.9239 65.2572 66.1667 60 66.1667C54.7428 66.1667 50.5 61.9239 50.5 56.6667V56.1667H50H30H29.5V56.6667C29.5 61.9239 25.2572 66.1667 20 66.1667C14.7428 66.1667 10.5 61.9239 10.5 56.6667V56.1667H10H3.83333ZM10 19.5H9.5V20V50V50.5H10H12.5333H12.7557L12.9047 50.3348C14.6483 48.401 17.1824 47.1667 20 47.1667C22.8176 47.1667 25.3517 48.401 27.0953 50.3348L27.2443 50.5H27.4667H50H50.5V50V20V19.5H50H10ZM60 62.1667C63.0428 62.1667 65.5 59.7095 65.5 56.6667C65.5 53.6239 63.0428 51.1667 60 51.1667C56.9572 51.1667 54.5 53.6239 54.5 56.6667C54.5 59.7095 56.9572 62.1667 60 62.1667ZM20 62.1667C23.0428 62.1667 25.5 59.7095 25.5 56.6667C25.5 53.6239 23.0428 51.1667 20 51.1667C16.9572 51.1667 14.5 53.6239 14.5 56.6667C14.5 59.7095 16.9572 62.1667 20 62.1667Z" fill="#C1C1C1" stroke="black"/>
</svg>
